<svg width="11" height="8" viewBox="0 0 11 8" fill="none" xmlns="http://www.w3.org/2000/svg">
<path d="M4.59452 6.88678C4.45225 7.03774 4.18093 7.03774 4.03976 6.88678H4.59452ZM4.59452 6.88678L9.98107 1.11928L4.59452 6.88678ZM1.85949 3.38289H1.85934H1.08841C1.00217 3.38289 0.921605 3.42584 0.878938 3.5001C0.834001 3.57832 0.8395 3.68068 0.909259 3.75544L0.909316 3.7555L3.93015 6.98917L3.9302 6.98923C4.03365 7.09986 4.17903 7.15 4.31673 7.15C4.45445 7.15 4.59982 7.09986 4.70368 6.98965L4.70415 6.98916L10.0897 1.22268C10.0899 1.22246 10.0902 1.22225 10.0904 1.22203C10.161 1.14727 10.1658 1.04457 10.1209 0.966823C10.0782 0.892879 9.99778 0.85 9.91159 0.85H9.14066C8.99617 0.85 8.85189 0.905625 8.75391 1.01163C8.7538 1.01175 8.75368 1.01188 8.75357 1.012L4.3166 5.76124L2.24589 3.5443L2.13616 3.64658L2.24578 3.54419L2.24583 3.54425C2.19708 3.49196 2.13665 3.45144 2.07018 3.42414C2.00368 3.39683 1.93172 3.38296 1.85949 3.38289Z" fill="white" stroke="white" stroke-width="0.3"/>
</svg>
